<?xml version="1.0" standalone="no"?>
<!DOCTYPE svg PUBLIC "-//W3C//DTD SVG 20010904//EN"
 "http://www.w3.org/TR/2001/REC-SVG-20010904/DTD/svg10.dtd">
<svg version="1.0" xmlns="http://www.w3.org/2000/svg"
 width="700.000000pt" height="700.000000pt" viewBox="0 0 700.000000 700.000000"
 preserveAspectRatio="xMidYMid meet">
<metadata>
Created by potrace 1.11, written by Peter Selinger 2001-2013
</metadata>
<g transform="translate(0.000000,700.000000) scale(0.100000,-0.100000)"
fill="#000000" stroke="none">
<path d="M3278 6785 c-2 -2 -36 -6 -76 -9 -114 -9 -174 -17 -352 -50 -163 -30
-430 -112 -615 -188 -64 -27 -316 -151 -375 -184 -322 -185 -681 -492 -915
-783 -340 -422 -563 -897 -670 -1423 -14 -65 -27 -146 -31 -180 -3 -35 -8 -66
-10 -69 -24 -42 -24 -767 0 -808 2 -3 7 -33 11 -66 3 -33 13 -90 21 -127 7
-37 16 -81 19 -96 11 -62 58 -233 96 -346 215 -646 635 -1216 1194 -1623 70
-51 227 -153 255 -166 8 -4 47 -26 85 -47 252 -144 623 -284 890 -335 22 -5
45 -9 50 -11 20 -5 81 -15 110 -19 32 -4 96 -15 130 -21 96 -18 544 -26 695
-12 1203 112 2234 855 2723 1960 75 168 174 464 193 578 2 14 11 55 19 91 20
89 44 252 53 357 14 166 6 573 -13 692 -2 14 -7 49 -10 79 -4 30 -9 63 -11 75
-2 12 -6 33 -9 49 -70 380 -226 787 -427 1110 -26 43 -48 81 -48 84 0 3 8 17
18 31 28 40 60 128 77 207 80 381 -184 761 -574 825 -141 23 -295 -1 -427 -68
l-60 -30 -119 70 c-343 200 -677 325 -1079 404 -82 16 -85 16 -191 29 -33 3
-76 9 -95 12 -41 6 -526 13 -532 8z m537 -290 c22 -2 60 -8 85 -11 25 -4 54
-8 65 -10 11 -1 31 -5 45 -7 14 -3 43 -8 65 -12 22 -4 92 -20 155 -36 272 -67
508 -162 752 -301 l107 -61 -18 -26 c-64 -92 -108 -278 -98 -409 40 -500 564
-799 1011 -577 38 19 73 32 77 29 24 -14 219 -395 219 -427 0 -7 4 -17 9 -23
32 -34 147 -434 176 -609 9 -55 18 -111 20 -124 26 -156 27 -599 0 -781 -1 -8
-5 -33 -9 -55 -3 -22 -8 -53 -11 -70 -31 -228 -146 -578 -275 -835 -321 -638
-875 -1157 -1525 -1425 -117 -49 -245 -94 -245 -88 0 3 -6 1 -12 -5 -12 -9
-232 -69 -288 -78 -14 -3 -47 -9 -73 -14 -26 -6 -71 -13 -100 -16 -29 -3 -57
-7 -64 -9 -83 -27 -615 -26 -777 0 -165 27 -278 50 -356 70 -52 14 -99 27
-105 28 -60 16 -243 82 -313 113 -29 13 -55 24 -58 24 -12 0 -212 104 -302
157 -133 78 -332 219 -422 299 -347 310 -570 596 -753 969 -103 209 -211 523
-243 705 -42 235 -42 233 -51 340 -10 110 -10 460 0 570 12 120 29 230 61 379
132 613 511 1231 1006 1641 302 249 609 421 970 544 98 33 350 98 430 111 85
13 191 26 260 32 41 3 77 7 79 9 6 5 457 -4 506 -11z"/>
<path d="M3349 5456 c-2 -2 -38 -7 -79 -10 -84 -8 -76 -6 -225 -41 -791 -186
-1395 -864 -1492 -1675 -17 -147 -8 -440 18 -571 6 -30 13 -67 16 -83 18 -104
102 -336 163 -455 l30 -57 -40 -80 c-178 -363 76 -786 479 -800 111 -4 174 10
267 57 l75 37 112 -53 c167 -78 366 -140 522 -161 28 -3 59 -8 70 -11 37 -9
379 -11 435 -3 30 5 73 11 95 13 157 18 410 100 580 187 153 78 168 87 300
186 427 318 711 811 772 1344 10 85 10 356 0 444 -62 560 -379 1078 -854 1399
-246 167 -518 271 -838 322 -47 7 -399 17 -406 11z m381 -290 c14 -3 51 -11
82 -16 32 -6 69 -13 83 -16 64 -12 244 -78 340 -124 100 -49 213 -118 300
-185 64 -49 249 -235 297 -300 102 -137 196 -307 243 -440 9 -27 21 -59 25
-70 14 -34 47 -176 61 -260 14 -87 18 -350 7 -457 -4 -37 -16 -107 -27 -156
-133 -609 -596 -1097 -1197 -1261 -109 -30 -137 -35 -249 -48 -119 -14 -456
-6 -485 12 -4 3 -25 7 -46 11 -109 17 -414 128 -414 151 0 4 10 33 22 63 32
81 32 249 0 342 -58 168 -187 298 -358 360 -86 31 -265 31 -344 0 -30 -12 -60
-22 -66 -22 -16 0 -87 176 -122 301 -48 169 -61 285 -56 489 4 158 6 184 25
280 65 329 219 620 454 856 130 130 151 147 275 228 164 108 330 180 525 230
57 14 86 19 215 36 60 8 370 5 410 -4z"/>
<path d="M3355 4256 c-281 -55 -512 -267 -595 -546 -93 -312 34 -655 313 -848
130 -90 286 -134 452 -127 143 5 227 28 343 91 72 39 74 40 154 114 268 245
324 643 136 956 -100 167 -273 297 -463 349 -83 22 -253 28 -340 11z m245
-277 c181 -36 341 -195 379 -377 53 -254 -106 -511 -357 -576 -195 -51 -416
32 -526 198 -132 198 -107 454 59 621 117 117 282 167 445 134z"/>
</g>
</svg>
