<svg data-v-423bf9ae="" xmlns="http://www.w3.org/2000/svg" viewBox="0 0 612.247478243652 60" class="font"><!----><!----><!----><g data-v-423bf9ae="" id="e9a4b953-37a0-410d-8252-c6f5efbb68f5" fill="black" transform="matrix(9.619474239268417,0,0,9.619474239268417,-0.03207884557491525,-51.848964150062656)"><path d="M3.14 5.42L3.14 5.42L3.14 5.42Q3.35 5.41 3.35 5.63L3.35 5.63L3.35 5.63Q3.35 5.91 3.35 6.19L3.35 6.19L3.35 6.19Q3.34 6.46 3.31 6.75L3.31 6.75L3.31 6.75Q3.27 7.01 3.31 7.27L3.31 7.27L3.31 7.27Q3.34 7.53 3.34 7.79L3.34 7.79L3.34 7.84L3.31 8.31L3.31 8.31Q3.29 8.46 3.27 8.57L3.27 8.57L3.27 8.57Q3.25 8.69 3.24 8.76L3.24 8.76L3.23 8.79L3.21 8.84L3.21 8.85L3.21 8.85Q3.19 8.93 3.14 9.01L3.14 9.01L3.14 9.01Q3.08 9.10 3.02 9.18L3.02 9.18L3.02 9.18Q2.95 9.26 2.88 9.32L2.88 9.32L2.88 9.32Q2.80 9.39 2.74 9.45L2.74 9.45L2.74 9.45Q2.63 9.55 2.49 9.61L2.49 9.61L2.49 9.61Q2.35 9.67 2.20 9.70L2.20 9.70L2.20 9.70Q2.05 9.73 1.90 9.74L1.90 9.74L1.90 9.74Q1.74 9.75 1.60 9.75L1.60 9.75L1.60 9.75Q1.35 9.75 1.11 9.69L1.11 9.69L1.11 9.69Q0.87 9.63 0.64 9.50L0.64 9.50L0.64 9.50Q0.63 9.48 0.63 9.47L0.63 9.47L0.63 9.47Q0.61 9.47 0.59 9.45L0.59 9.45L0.59 9.45Q0.58 9.44 0.57 9.43L0.57 9.43L0.57 9.43Q0.55 9.41 0.53 9.40L0.53 9.40L0.53 9.40Q0.52 9.39 0.51 9.37L0.51 9.37L0.51 9.37Q0.16 9.01 0.07 8.47L0.07 8.47L0.07 8.47Q0.03 8.20 0.01 7.95L0.01 7.95L0.01 7.95Q0 7.69 0.01 7.44L0.01 7.44L0.01 7.44Q0.02 7.38 0.03 7.32L0.03 7.32L0.03 7.32Q0.03 7.27 0.04 7.21L0.04 7.21L0.04 7.21Q0.05 7.12 0.04 7.05L0.04 7.05L0.04 7.05Q0.04 6.97 0.03 6.90L0.03 6.90L0.03 6.90Q-0.01 6.36 0.01 5.63L0.01 5.63L0.01 5.63Q0.02 5.48 0.19 5.42L0.19 5.42L0.19 5.42Q0.33 5.38 0.42 5.45L0.42 5.45L0.42 5.45Q0.48 5.50 0.48 5.57L0.48 5.57L0.48 5.57Q0.49 5.67 0.48 5.82L0.48 5.82L0.48 5.82Q0.48 5.97 0.47 6.17L0.47 6.17L0.47 6.17Q0.47 6.34 0.46 6.51L0.46 6.51L0.46 6.51Q0.44 6.68 0.44 6.84L0.44 6.84L0.44 6.84Q0.44 7.05 0.43 7.24L0.43 7.24L0.43 7.24Q0.42 7.44 0.42 7.64L0.42 7.64L0.42 7.64Q0.42 8.02 0.54 8.50L0.54 8.50L0.54 8.50Q0.55 8.56 0.57 8.61L0.57 8.61L0.57 8.61Q0.59 8.66 0.60 8.72L0.60 8.72L0.60 8.72Q0.70 9.04 0.92 9.16L0.92 9.16L0.92 9.16Q1.07 9.26 1.50 9.28L1.50 9.28L1.50 9.28Q1.56 9.29 1.61 9.30L1.61 9.30L1.61 9.30Q1.67 9.31 1.73 9.31L1.73 9.31L1.74 9.31L1.74 9.31L1.74 9.31Q2.07 9.31 2.32 9.19L2.32 9.19L2.32 9.19Q2.56 9.08 2.73 8.79L2.73 8.79L2.73 8.79Q2.87 8.56 2.87 8.08L2.87 8.08L2.87 8.08Q2.87 7.99 2.87 7.93L2.87 7.93L2.87 7.93Q2.87 7.86 2.88 7.82L2.88 7.82L2.88 7.82Q2.95 7.21 2.86 6.55L2.86 6.55L2.86 6.55Q2.85 6.46 2.88 6.22L2.88 6.22L2.88 6.22Q2.90 6.13 2.91 6.05L2.91 6.05L2.91 6.05Q2.91 5.97 2.91 5.92L2.91 5.92L2.91 5.92Q2.91 5.63 2.95 5.52L2.95 5.52L2.95 5.52Q3.01 5.42 3.14 5.42ZM5.59 9.56L5.59 9.56L5.59 9.56Q5.56 9.68 5.38 9.70L5.38 9.70L5.38 9.70Q5.19 9.69 5.19 9.49L5.19 9.49L5.19 9.49Q5.19 8.96 5.16 8.41L5.16 8.41L5.16 8.41Q5.14 7.87 5.20 7.33L5.20 7.33L5.20 7.33L5.20 7.33Q5.20 7.17 5.20 7.02L5.20 7.02L5.20 7.02Q5.20 6.87 5.19 6.73L5.19 6.73L5.13 6.21L5.13 6.21Q5.11 5.99 5.20 5.74L5.20 5.74L5.20 5.74Q5.27 5.56 5.39 5.52L5.39 5.52L5.39 5.52Q5.48 5.50 5.58 5.62L5.58 5.62L5.58 5.62Q5.68 5.72 5.73 5.80L5.73 5.80L5.73 5.80Q5.82 5.93 5.91 6.03L5.91 6.03L5.91 6.03Q6.00 6.13 6.09 6.22L6.09 6.22L6.09 6.22Q6.17 6.31 6.24 6.37L6.24 6.37L6.24 6.37Q6.32 6.44 6.40 6.52L6.40 6.52L6.40 6.52Q6.47 6.59 6.55 6.70L6.55 6.70L6.55 6.70Q6.63 6.80 6.73 6.95L6.73 6.95L7.03 7.41L7.03 7.41Q7.06 7.46 7.10 7.52L7.10 7.52L7.10 7.52Q7.14 7.58 7.19 7.66L7.19 7.66L7.20 7.67L7.20 7.67Q7.34 7.86 7.50 8.03L7.50 8.03L7.50 8.03Q7.57 8.11 7.65 8.19L7.65 8.19L7.65 8.19Q7.72 8.26 7.81 8.33L7.81 8.33L7.81 8.33Q7.88 8.42 7.98 8.39L7.98 8.39L7.98 8.39Q8.14 8.35 8.13 8.07L8.13 8.07L8.13 8.07Q8.13 8.00 8.12 7.93L8.12 7.93L8.12 7.93Q8.11 7.85 8.11 7.78L8.11 7.78L8.11 7.78Q8.11 7.72 8.10 7.67L8.10 7.67L8.10 7.67Q8.09 7.62 8.09 7.56L8.09 7.56L8.09 7.56Q8.09 7.53 8.09 7.50L8.09 7.50L8.09 7.50Q8.09 7.46 8.09 7.42L8.09 7.42L8.09 7.42Q8.11 6.82 8.05 6.30L8.05 6.30L8.05 6.30Q8.04 6.27 8.04 6.19L8.04 6.19L8.04 6.19Q8.04 6.11 8.05 5.99L8.05 5.99L8.05 5.99Q8.06 5.84 8.09 5.67L8.09 5.67L8.09 5.67Q8.11 5.42 8.31 5.42L8.31 5.42L8.31 5.42Q8.53 5.42 8.53 5.68L8.53 5.68L8.53 5.68Q8.54 5.89 8.55 6.11L8.55 6.11L8.55 6.11Q8.56 6.32 8.56 6.54L8.56 6.54L8.56 6.54Q8.57 6.85 8.54 7.16L8.54 7.16L8.54 7.16Q8.52 7.48 8.54 7.79L8.54 7.79L8.54 7.79Q8.55 8.00 8.55 8.21L8.55 8.21L8.55 8.21Q8.54 8.42 8.54 8.62L8.54 8.62L8.54 8.62Q8.54 8.74 8.54 8.85L8.54 8.85L8.54 8.85Q8.54 8.96 8.54 9.06L8.54 9.06L8.54 9.34L8.54 9.34Q8.54 9.38 8.53 9.42L8.53 9.42L8.53 9.42Q8.53 9.46 8.53 9.50L8.53 9.50L8.53 9.50Q8.52 9.50 8.52 9.51L8.52 9.51L8.52 9.51Q8.52 9.52 8.52 9.52L8.52 9.52L8.52 9.52Q8.44 9.62 8.29 9.62L8.29 9.62L8.29 9.62Q8.10 9.63 8.00 9.50L8.00 9.50L8.00 9.50Q7.90 9.37 7.82 9.22L7.82 9.22L7.82 9.22Q7.73 9.07 7.63 8.93L7.63 8.93L7.63 8.93Q7.51 8.76 7.36 8.58L7.36 8.58L7.36 8.58Q7.21 8.39 7.03 8.18L7.03 8.18L7.03 8.18Q6.97 8.10 6.84 7.90L6.84 7.90L6.60 7.52L6.60 7.52Q6.51 7.38 6.43 7.24L6.43 7.24L6.43 7.24Q6.34 7.10 6.24 6.97L6.24 6.97L6.24 6.97Q6.20 6.92 6.15 6.87L6.15 6.87L6.15 6.87Q6.10 6.81 6.05 6.77L6.05 6.77L6.05 6.77Q6.00 6.73 5.93 6.71L5.93 6.71L5.93 6.71Q5.86 6.69 5.79 6.71L5.79 6.71L5.79 6.71Q5.61 6.76 5.62 7.08L5.62 7.08L5.62 7.08Q5.63 7.31 5.63 7.52L5.63 7.52L5.63 7.52Q5.63 7.72 5.65 7.90L5.65 7.90L5.65 7.90Q5.66 8.05 5.64 8.19L5.64 8.19L5.64 8.19Q5.63 8.33 5.63 8.47L5.63 8.47L5.63 9.00L5.63 9.00Q5.63 9.17 5.62 9.31L5.62 9.31L5.62 9.31Q5.61 9.45 5.59 9.56ZM10.67 9.70L10.67 9.70L10.67 9.70Q10.45 9.67 10.45 9.44L10.45 9.44L10.45 9.44Q10.45 9.07 10.45 8.72L10.45 8.72L10.45 8.72Q10.45 8.36 10.45 7.99L10.45 7.99L10.45 7.99Q10.45 7.79 10.47 7.58L10.47 7.58L10.47 7.58Q10.48 7.43 10.48 7.30L10.48 7.30L10.48 7.30Q10.48 7.17 10.47 7.06L10.47 7.06L10.47 7.06Q10.47 6.99 10.46 6.90L10.46 6.90L10.46 6.90Q10.45 6.80 10.45 6.67L10.45 6.67L10.45 6.67Q10.45 6.60 10.45 6.51L10.45 6.51L10.45 6.51Q10.45 6.41 10.46 6.28L10.46 6.28L10.46 6.28Q10.47 6.19 10.47 6.11L10.47 6.11L10.47 6.11Q10.47 6.04 10.47 5.99L10.47 5.99L10.47 5.84L10.47 5.83L10.47 5.78L10.47 5.78Q10.45 5.61 10.48 5.54L10.48 5.54L10.48 5.54Q10.50 5.49 10.57 5.44L10.57 5.44L10.57 5.44Q10.83 5.30 10.90 5.61L10.90 5.61L10.90 5.61Q10.95 5.84 10.96 6.07L10.96 6.07L10.96 6.07Q10.97 6.29 10.95 6.51L10.95 6.51L10.95 6.51L10.95 6.51Q10.93 6.73 10.94 6.94L10.94 6.94L10.94 6.94Q10.95 7.15 10.93 7.36L10.93 7.36L10.93 7.36Q10.91 7.55 10.90 7.68L10.90 7.68L10.90 7.68Q10.88 7.82 10.88 7.92L10.88 7.92L10.88 7.92Q10.86 8.05 10.86 8.20L10.86 8.20L10.86 8.20Q10.86 8.35 10.87 8.51L10.87 8.51L10.87 8.51Q10.88 8.54 10.88 8.59L10.88 8.59L10.88 8.59Q10.88 8.63 10.88 8.70L10.88 8.70L10.88 8.70Q10.88 8.80 10.88 8.91L10.88 8.91L10.88 8.91Q10.88 9.02 10.88 9.13L10.88 9.13L10.88 9.13Q10.88 9.20 10.89 9.27L10.89 9.27L10.89 9.27Q10.89 9.33 10.88 9.40L10.88 9.40L10.88 9.40Q10.88 9.54 10.88 9.55L10.88 9.55L10.88 9.55Q10.85 9.68 10.67 9.70ZM13.56 6.24L13.56 6.24L13.56 6.24Q13.61 6.36 13.64 6.48L13.64 6.48L13.64 6.48Q13.67 6.60 13.70 6.73L13.70 6.73L13.70 6.73Q13.73 6.85 13.77 6.97L13.77 6.97L13.77 6.97Q13.81 7.10 13.87 7.21L13.87 7.21L13.87 7.21Q13.99 7.42 14.09 7.64L14.09 7.64L14.09 7.64Q14.18 7.85 14.28 8.07L14.28 8.07L14.42 8.37L14.42 8.37Q14.53 8.55 14.69 8.57L14.69 8.57L14.69 8.57Q14.90 8.59 15.05 8.24L15.05 8.24L15.05 8.24Q15.14 8.05 15.22 7.84L15.22 7.84L15.22 7.84Q15.29 7.63 15.36 7.42L15.36 7.42L15.36 7.42Q15.37 7.40 15.40 7.34L15.40 7.34L15.40 7.34Q15.43 7.27 15.50 7.16L15.50 7.16L15.50 7.16Q15.54 7.08 15.58 7.02L15.58 7.02L15.58 7.02Q15.61 6.95 15.65 6.90L15.65 6.90L15.65 6.90Q15.80 6.58 15.96 6.25L15.96 6.25L15.96 6.25Q16.12 5.91 16.24 5.56L16.24 5.56L16.24 5.56Q16.26 5.47 16.32 5.45L16.32 5.45L16.32 5.45Q16.37 5.43 16.54 5.50L16.54 5.50L16.54 5.50Q16.67 5.57 16.68 5.61L16.68 5.61L16.68 5.61Q16.69 5.67 16.65 5.77L16.65 5.77L16.65 5.77Q16.60 5.87 16.58 5.93L16.58 5.93L16.51 6.05L16.51 6.05Q16.45 6.16 16.40 6.27L16.40 6.27L16.40 6.27Q16.35 6.37 16.30 6.47L16.30 6.47L16.30 6.47Q16.20 6.66 16.13 6.85L16.13 6.85L16.13 6.85Q16.06 7.04 15.98 7.23L15.98 7.23L15.98 7.23Q15.79 7.64 15.60 8.04L15.60 8.04L15.60 8.04Q15.42 8.45 15.20 8.84L15.20 8.84L15.20 8.84Q15.11 9.00 15.04 9.21L15.04 9.21L15.04 9.21Q14.97 9.45 14.84 9.54L14.84 9.54L14.84 9.54Q14.79 9.58 14.72 9.59L14.72 9.59L14.72 9.59Q14.68 9.60 14.60 9.57L14.60 9.57L14.60 9.57Q14.55 9.55 14.51 9.50L14.51 9.50L14.51 9.50Q14.47 9.45 14.44 9.39L14.44 9.39L14.44 9.39Q14.41 9.33 14.38 9.27L14.38 9.27L14.38 9.27Q14.36 9.21 14.33 9.16L14.33 9.16L14.33 9.16Q14.18 8.93 14.06 8.65L14.06 8.65L14.06 8.65Q13.94 8.37 13.79 8.04L13.79 8.04L13.79 8.04Q13.69 7.82 13.61 7.59L13.61 7.59L13.61 7.59Q13.52 7.37 13.41 7.15L13.41 7.15L13.41 7.15Q13.36 7.08 13.26 6.77L13.26 6.77L13.26 6.77Q13.25 6.73 13.23 6.65L13.23 6.65L13.23 6.65Q13.21 6.58 13.17 6.49L13.17 6.49L13.17 6.49Q13.11 6.34 13.04 6.21L13.04 6.21L13.04 6.21Q12.97 6.07 12.90 5.93L12.90 5.93L12.90 5.93Q12.79 5.67 12.79 5.61L12.79 5.61L12.79 5.61Q12.81 5.48 12.93 5.43L12.93 5.43L12.93 5.43Q13.13 5.35 13.23 5.59L13.23 5.59L13.23 5.59Q13.30 5.76 13.39 5.92L13.39 5.92L13.39 5.92Q13.48 6.08 13.56 6.24ZM18.33 9.29L18.33 9.29L18.33 9.29Q18.32 8.87 18.32 8.46L18.32 8.46L18.32 8.46Q18.33 8.04 18.33 7.62L18.33 7.62L18.33 7.38L18.33 7.38Q18.33 7.20 18.32 7.01L18.32 7.01L18.32 7.01Q18.31 6.82 18.32 6.64L18.32 6.64L18.32 6.64Q18.33 6.43 18.33 6.23L18.33 6.23L18.33 6.23Q18.33 6.03 18.33 5.82L18.33 5.82L18.33 5.82Q18.33 5.58 18.45 5.48L18.45 5.48L18.45 5.48Q18.54 5.41 18.76 5.41L18.76 5.41L18.76 5.41Q18.88 5.41 18.97 5.40L18.97 5.40L18.97 5.40Q19.05 5.40 19.11 5.40L19.11 5.40L19.11 5.40Q19.38 5.39 19.65 5.40L19.65 5.40L19.65 5.40Q19.91 5.41 20.18 5.41L20.18 5.41L20.18 5.41Q20.32 5.40 20.47 5.40L20.47 5.40L20.47 5.40Q20.61 5.39 20.75 5.41L20.75 5.41L21.10 5.43L21.10 5.43Q21.16 5.43 21.20 5.43L21.20 5.43L21.20 5.43Q21.25 5.43 21.28 5.45L21.28 5.45L21.28 5.45Q21.42 5.52 21.42 5.66L21.42 5.66L21.42 5.66Q21.41 5.72 21.37 5.76L21.37 5.76L21.37 5.76Q21.33 5.80 21.28 5.82L21.28 5.82L21.28 5.82Q21.23 5.84 21.17 5.84L21.17 5.84L21.17 5.84Q21.12 5.85 21.08 5.85L21.08 5.85L21.08 5.85Q20.66 5.85 20.25 5.83L20.25 5.83L20.25 5.83Q20.21 5.82 20.15 5.82L20.15 5.82L20.15 5.82Q20.08 5.82 20.01 5.82L20.01 5.82L19.61 5.82L19.61 5.82Q19.46 5.82 19.33 5.83L19.33 5.83L19.33 5.83Q19.21 5.83 19.13 5.83L19.13 5.83L19.13 5.83Q19.01 5.84 18.94 5.86L18.94 5.86L18.94 5.86Q18.86 5.89 18.83 5.94L18.83 5.94L18.83 5.94Q18.77 6.02 18.79 6.15L18.79 6.15L18.79 6.15Q18.79 6.20 18.79 6.24L18.79 6.24L18.79 6.24Q18.79 6.28 18.78 6.32L18.78 6.32L18.78 6.32Q18.76 6.40 18.76 6.49L18.76 6.49L18.76 6.49Q18.75 6.58 18.76 6.69L18.76 6.69L18.76 6.69Q18.76 6.88 18.91 7.01L18.91 7.01L18.91 7.01Q19.03 7.12 19.35 7.10L19.35 7.10L19.35 7.10Q19.50 7.10 19.64 7.08L19.64 7.08L19.64 7.08Q19.78 7.06 19.92 7.07L19.92 7.07L19.92 7.07Q19.98 7.07 20.08 7.07L20.08 7.07L20.08 7.07Q20.18 7.08 20.32 7.07L20.32 7.07L20.32 7.07Q20.59 7.06 20.69 7.16L20.69 7.16L20.69 7.16Q20.72 7.21 20.71 7.32L20.71 7.32L20.71 7.32Q20.69 7.44 20.52 7.47L20.52 7.47L20.52 7.47Q20.36 7.50 20.27 7.50L20.27 7.50L20.27 7.50Q20.15 7.51 20.03 7.50L20.03 7.50L20.03 7.50Q19.91 7.50 19.78 7.51L19.78 7.51L19.78 7.51Q19.63 7.52 19.48 7.51L19.48 7.51L19.48 7.51Q19.32 7.51 19.15 7.49L19.15 7.49L19.15 7.49Q19.13 7.49 19.10 7.49L19.10 7.49L19.10 7.49Q19.07 7.49 19.05 7.49L19.05 7.49L19.04 7.49L19.04 7.49Q18.97 7.47 18.89 7.52L18.89 7.52L18.89 7.52Q18.77 7.59 18.76 7.78L18.76 7.78L18.76 7.78Q18.74 7.96 18.76 8.09L18.76 8.09L18.76 8.09Q18.76 8.16 18.77 8.22L18.77 8.22L18.77 8.22Q18.77 8.29 18.76 8.33L18.76 8.33L18.76 8.33Q18.75 8.44 18.74 8.53L18.74 8.53L18.74 8.53Q18.73 8.63 18.72 8.74L18.72 8.74L18.72 8.74Q18.70 9.00 18.79 9.13L18.79 9.13L18.79 9.13Q18.90 9.28 19.19 9.28L19.19 9.28L19.19 9.28Q19.41 9.28 19.65 9.27L19.65 9.27L19.65 9.27Q19.88 9.26 20.11 9.25L20.11 9.25L20.11 9.25Q20.32 9.24 20.55 9.26L20.55 9.26L20.55 9.26Q20.77 9.28 20.99 9.28L20.99 9.28L20.99 9.28Q21.07 9.28 21.21 9.28L21.21 9.28L21.21 9.28Q21.34 9.28 21.42 9.32L21.42 9.32L21.42 9.32Q21.49 9.36 21.49 9.44L21.49 9.44L21.49 9.44Q21.57 9.69 21.28 9.70L21.28 9.70L21.28 9.70Q20.83 9.72 20.40 9.71L20.40 9.71L20.40 9.71Q19.96 9.71 19.52 9.71L19.52 9.71L19.52 9.71Q19.50 9.71 19.47 9.72L19.47 9.72L19.47 9.72Q19.45 9.72 19.43 9.72L19.43 9.72L19.43 9.72Q19.27 9.72 19.16 9.72L19.16 9.72L19.16 9.72Q19.04 9.72 18.97 9.71L18.97 9.71L18.97 9.71Q18.92 9.71 18.86 9.71L18.86 9.71L18.86 9.71Q18.79 9.71 18.71 9.70L18.71 9.70L18.71 9.70Q18.64 9.69 18.60 9.69L18.60 9.69L18.60 9.69Q18.55 9.68 18.53 9.67L18.53 9.67L18.53 9.67Q18.33 9.61 18.33 9.29ZM25.74 5.67L25.74 5.67L25.74 5.67Q25.88 5.82 25.97 5.99L25.97 5.99L25.97 5.99Q26.05 6.16 26.14 6.34L26.14 6.34L26.14 6.34Q26.24 6.54 26.20 6.74L26.20 6.74L26.20 6.74Q26.16 6.94 25.98 7.13L25.98 7.13L25.98 7.13Q25.83 7.28 25.50 7.37L25.50 7.37L25.50 7.37Q25.38 7.40 25.23 7.44L25.23 7.44L25.23 7.44Q25.09 7.48 25.04 7.60L25.04 7.60L25.04 7.60Q25.00 7.72 25.06 7.84L25.06 7.84L25.06 7.84Q25.13 7.97 25.17 8.05L25.17 8.05L25.17 8.05Q25.21 8.13 25.24 8.18L25.24 8.18L25.24 8.18Q25.27 8.24 25.33 8.33L25.33 8.33L25.33 8.33Q25.38 8.42 25.46 8.52L25.46 8.52L25.46 8.52Q25.61 8.74 25.79 8.93L25.79 8.93L25.79 8.93Q25.96 9.13 26.14 9.30L26.14 9.30L26.17 9.34L26.17 9.34Q26.33 9.49 26.18 9.63L26.18 9.63L26.18 9.63Q26.02 9.79 25.88 9.64L25.88 9.64L25.88 9.64Q25.76 9.52 25.68 9.43L25.68 9.43L25.68 9.43Q25.59 9.34 25.51 9.26L25.51 9.26L25.51 9.26Q25.35 9.05 25.20 8.83L25.20 8.83L25.20 8.83Q25.10 8.67 25.00 8.53L25.00 8.53L25.00 8.53Q24.89 8.39 24.79 8.23L24.79 8.23L24.79 8.23Q24.52 7.74 24.12 7.58L24.12 7.58L24.12 7.58Q23.69 7.42 23.49 7.70L23.49 7.70L23.49 7.70Q23.43 7.80 23.43 7.92L23.43 7.92L23.43 9.40L23.43 9.49L23.43 9.49Q23.43 9.69 23.21 9.70L23.21 9.70L23.21 9.70Q23.00 9.69 23.00 9.44L23.00 9.44L23.00 9.44Q23.00 9.28 23.01 9.12L23.01 9.12L23.01 9.12Q23.02 8.95 23.03 8.76L23.03 8.76L23.03 8.76Q23.04 8.63 23.03 8.49L23.03 8.49L23.03 8.49Q23.02 8.35 23.02 8.22L23.02 8.22L23.02 8.22Q23.02 8.09 23.02 7.96L23.02 7.96L23.02 7.96Q23.03 7.83 23.03 7.70L23.03 7.70L23.03 7.70Q23.04 7.40 23.01 7.07L23.01 7.07L23.01 7.07Q23.01 6.84 23.02 6.61L23.02 6.61L23.02 6.61Q23.03 6.38 23.02 6.14L23.02 6.14L23.02 6.14Q23.02 6.02 23.02 5.86L23.02 5.86L23.02 5.86Q23.02 5.71 23.06 5.58L23.06 5.58L23.06 5.58Q23.18 5.42 23.64 5.42L23.64 5.42L23.85 5.42L23.85 5.42Q24.10 5.42 24.35 5.44L24.35 5.44L24.35 5.44Q24.60 5.46 24.84 5.45L24.84 5.45L24.84 5.45Q25.41 5.42 25.74 5.67ZM23.82 7.15L23.82 7.15L23.82 7.15Q24.08 7.16 24.27 7.16L24.27 7.16L24.27 7.16Q24.47 7.16 24.61 7.14L24.61 7.14L24.61 7.14Q24.74 7.13 24.90 7.11L24.90 7.11L24.90 7.11Q25.06 7.09 25.25 7.05L25.25 7.05L25.25 7.05Q25.64 6.97 25.76 6.69L25.76 6.69L25.76 6.69Q25.81 6.59 25.79 6.47L25.79 6.47L25.79 6.47Q25.78 6.34 25.71 6.24L25.71 6.24L25.71 6.24Q25.65 6.14 25.55 6.07L25.55 6.07L25.55 6.07Q25.45 6.00 25.33 5.94L25.33 5.94L25.33 5.94Q25.22 5.89 25.11 5.87L25.11 5.87L25.11 5.87Q24.82 5.82 24.54 5.83L24.54 5.83L24.54 5.83Q24.25 5.84 23.97 5.82L23.97 5.82L23.97 5.82Q23.91 5.82 23.86 5.82L23.86 5.82L23.86 5.82Q23.81 5.82 23.75 5.82L23.75 5.82L23.75 5.82Q23.61 5.81 23.54 5.89L23.54 5.89L23.54 5.89Q23.47 5.96 23.49 6.08L23.49 6.08L23.49 6.08Q23.50 6.12 23.50 6.23L23.50 6.23L23.50 6.23Q23.49 6.33 23.47 6.43L23.47 6.43L23.47 6.43Q23.45 6.52 23.45 6.62L23.45 6.62L23.45 6.62Q23.41 6.88 23.51 7.01L23.51 7.01L23.51 7.01Q23.60 7.14 23.82 7.15ZM30.99 9.08L30.99 9.08L30.99 9.08Q30.88 9.23 30.77 9.34L30.77 9.34L30.77 9.34Q30.67 9.45 30.55 9.53L30.55 9.53L30.55 9.53Q30.43 9.60 30.29 9.66L30.29 9.66L30.29 9.66Q30.15 9.71 29.98 9.73L29.98 9.73L29.98 9.73Q29.89 9.74 29.79 9.74L29.79 9.74L29.79 9.74Q29.70 9.75 29.59 9.73L29.59 9.73L29.59 9.73Q29.44 9.72 29.29 9.72L29.29 9.72L29.29 9.72Q29.15 9.72 29.00 9.69L29.00 9.69L29.00 9.69Q28.67 9.61 28.45 9.46L28.45 9.46L28.45 9.46Q28.23 9.31 28.12 9.07L28.12 9.07L28.12 9.07Q27.97 8.74 28.29 8.73L28.29 8.73L28.29 8.73Q28.34 8.73 28.41 8.81L28.41 8.81L28.41 8.81Q28.49 8.89 28.53 8.93L28.53 8.93L28.53 8.93Q28.67 9.07 28.69 9.08L28.69 9.08L28.70 9.08L28.70 9.09L28.70 9.09Q29.03 9.32 29.59 9.32L29.59 9.32L29.59 9.32L29.60 9.32L29.60 9.32Q29.83 9.32 30.19 9.23L30.19 9.23L30.19 9.23Q30.55 9.14 30.67 8.87L30.67 8.87L30.67 8.87Q30.73 8.70 30.67 8.51L30.67 8.51L30.67 8.50L30.67 8.50Q30.50 8.14 30.00 8.02L30.00 8.02L29.16 7.80L29.16 7.80Q28.98 7.76 28.73 7.63L28.73 7.63L28.73 7.63Q28.60 7.56 28.51 7.51L28.51 7.51L28.51 7.51Q28.41 7.45 28.35 7.40L28.35 7.40L28.35 7.40Q28.07 7.19 28.02 6.99L28.02 6.99L28.02 6.99Q28.01 6.95 28.01 6.89L28.01 6.89L28.01 6.89Q28.01 6.83 28.01 6.74L28.01 6.74L28.01 6.74Q28.01 6.64 28.03 6.55L28.03 6.55L28.03 6.55Q28.04 6.46 28.05 6.36L28.05 6.36L28.05 6.36Q28.10 6.04 28.32 5.80L28.32 5.80L28.32 5.80Q28.42 5.69 28.57 5.62L28.57 5.62L28.57 5.62Q28.72 5.55 28.85 5.49L28.85 5.49L28.85 5.49Q29.05 5.40 29.25 5.40L29.25 5.40L29.25 5.40Q29.46 5.39 29.67 5.40L29.67 5.40L29.67 5.40Q30.34 5.42 30.71 5.87L30.71 5.87L30.71 5.87Q30.88 6.08 30.84 6.22L30.84 6.22L30.80 6.26L30.80 6.26Q30.69 6.32 30.54 6.19L30.54 6.19L30.54 6.19Q30.50 6.16 30.46 6.13L30.46 6.13L30.46 6.13Q30.43 6.09 30.39 6.06L30.39 6.06L30.39 6.06Q30.36 6.02 30.30 5.98L30.30 5.98L30.30 5.98Q30.25 5.95 30.18 5.91L30.18 5.91L30.17 5.90L30.15 5.90L30.15 5.90Q29.89 5.82 29.63 5.81L29.63 5.81L29.63 5.81Q29.37 5.80 29.09 5.86L29.09 5.86L29.09 5.86Q28.75 5.93 28.57 6.14L28.57 6.14L28.57 6.14Q28.40 6.34 28.40 6.67L28.40 6.67L28.40 6.69L28.40 6.70L28.40 6.70Q28.43 7.12 29.06 7.30L29.06 7.30L29.26 7.36L29.76 7.53L29.76 7.53Q29.88 7.57 30.00 7.62L30.00 7.62L30.00 7.62Q30.11 7.67 30.24 7.72L30.24 7.72L30.24 7.72Q30.43 7.81 30.60 7.90L30.60 7.90L30.60 7.90Q30.76 7.98 30.90 8.07L30.90 8.07L30.90 8.07Q30.99 8.13 31.05 8.22L31.05 8.22L31.05 8.22Q31.10 8.31 31.11 8.41L31.11 8.41L31.11 8.41Q31.13 8.51 31.13 8.62L31.13 8.62L31.13 8.62Q31.12 8.73 31.10 8.82L31.10 8.82L31.10 8.82Q31.09 8.89 31.06 8.96L31.06 8.96L31.06 8.96Q31.03 9.03 30.99 9.08ZM36.67 9.47L36.67 9.47L36.67 9.47Q36.67 9.65 36.53 9.69L36.53 9.69L36.53 9.69Q36.41 9.75 36.31 9.61L36.31 9.61L36.31 9.61Q36.26 9.54 36.23 9.49L36.23 9.49L36.23 9.49Q36.20 9.43 36.18 9.39L36.18 9.39L36.18 9.39Q36.09 9.18 36.01 9.03L36.01 9.03L36.01 9.03Q35.94 8.87 35.86 8.78L35.86 8.78L35.86 8.78Q35.70 8.55 35.50 8.49L35.50 8.49L35.50 8.49Q35.33 8.44 34.95 8.48L34.95 8.48L34.95 8.48Q34.73 8.50 34.54 8.51L34.54 8.51L34.54 8.51Q34.34 8.52 34.17 8.50L34.17 8.50L34.17 8.50Q33.77 8.48 33.58 8.76L33.58 8.76L33.56 8.78L33.56 8.79L33.56 8.79Q33.49 8.93 33.44 9.06L33.44 9.06L33.44 9.06Q33.40 9.19 33.34 9.32L33.34 9.32L33.20 9.54L33.20 9.54Q33.10 9.69 33.00 9.70L33.00 9.70L33.00 9.70Q32.95 9.72 32.86 9.65L32.86 9.65L32.86 9.65Q32.82 9.60 32.81 9.55L32.81 9.55L32.81 9.55Q32.80 9.49 32.81 9.43L32.81 9.43L32.81 9.43Q32.82 9.37 32.84 9.30L32.84 9.30L32.84 9.30Q32.87 9.24 32.89 9.19L32.89 9.19L33.05 8.85L33.05 8.85Q33.29 8.35 33.50 7.85L33.50 7.85L33.50 7.85Q33.71 7.34 33.94 6.83L33.94 6.83L33.94 6.83Q33.98 6.74 34.01 6.66L34.01 6.66L34.01 6.66Q34.04 6.58 34.08 6.51L34.08 6.51L34.08 6.51Q34.15 6.32 34.23 6.14L34.23 6.14L34.23 6.14Q34.30 5.95 34.40 5.76L34.40 5.76L34.50 5.61L34.50 5.61Q34.58 5.48 34.64 5.48L34.64 5.48L34.64 5.48Q34.71 5.46 34.82 5.59L34.82 5.59L34.82 5.59Q34.94 5.73 35.04 5.91L35.04 5.91L35.04 5.91Q35.15 6.10 35.23 6.26L35.23 6.26L35.23 6.26Q35.46 6.77 35.67 7.28L35.67 7.28L35.67 7.28Q35.88 7.79 36.12 8.28L36.12 8.28L36.12 8.28Q36.20 8.43 36.27 8.58L36.27 8.58L36.27 8.58Q36.34 8.74 36.42 8.88L36.42 8.88L36.42 8.88Q36.46 8.98 36.51 9.08L36.51 9.08L36.51 9.08Q36.55 9.17 36.59 9.27L36.59 9.27L36.59 9.27Q36.63 9.34 36.65 9.39L36.65 9.39L36.65 9.39Q36.67 9.44 36.67 9.47ZM35.32 7.56L35.32 7.56L35.32 7.56Q35.25 7.40 35.19 7.22L35.19 7.22L35.19 7.22Q35.12 7.05 35.03 6.88L35.03 6.88L35.03 6.88Q34.87 6.57 34.67 6.58L34.67 6.58L34.67 6.58Q34.60 6.58 34.54 6.62L34.54 6.62L34.54 6.62Q34.48 6.67 34.44 6.72L34.44 6.72L34.44 6.72Q34.40 6.78 34.36 6.85L34.36 6.85L34.36 6.85Q34.33 6.92 34.31 6.98L34.31 6.98L34.31 6.98Q34.23 7.18 34.17 7.40L34.17 7.40L34.17 7.40Q34.10 7.62 34.04 7.83L34.04 7.83L34.04 7.83Q33.99 7.98 34.05 8.05L34.05 8.05L34.05 8.05Q34.09 8.12 34.26 8.13L34.26 8.13L34.26 8.13Q34.41 8.14 34.53 8.15L34.53 8.15L34.53 8.15Q34.64 8.15 34.72 8.14L34.72 8.14L34.72 8.14Q34.87 8.14 35.12 8.10L35.12 8.10L35.12 8.10Q35.37 8.06 35.42 7.88L35.42 7.88L35.42 7.88Q35.44 7.77 35.39 7.69L35.39 7.69L35.39 7.69Q35.38 7.66 35.35 7.63L35.35 7.63L35.35 7.63Q35.33 7.59 35.32 7.56ZM41.04 9.34L41.04 9.34L41.04 9.34Q41.13 9.40 41.13 9.50L41.13 9.50L41.13 9.50Q41.13 9.72 40.86 9.72L40.86 9.72L40.86 9.72Q40.37 9.72 39.87 9.71L39.87 9.71L39.87 9.71Q39.38 9.69 38.89 9.73L38.89 9.73L38.89 9.73Q38.50 9.75 38.42 9.52L38.42 9.52L38.42 9.52Q38.38 9.41 38.38 9.19L38.38 9.19L38.38 9.19Q38.38 9.08 38.39 8.99L38.39 8.99L38.39 8.99Q38.39 8.91 38.39 8.85L38.39 8.85L38.39 8.85Q38.40 8.70 38.41 8.53L38.41 8.53L38.41 8.53Q38.42 8.37 38.41 8.22L38.41 8.22L38.41 8.22Q38.40 7.89 38.38 7.58L38.38 7.58L38.38 7.58Q38.37 7.27 38.38 6.94L38.38 6.94L38.38 6.94Q38.38 6.78 38.39 6.63L38.39 6.63L38.39 6.63Q38.40 6.47 38.40 6.31L38.40 6.31L38.40 6.31Q38.40 6.11 38.40 5.94L38.40 5.94L38.40 5.94Q38.40 5.78 38.38 5.64L38.38 5.64L38.38 5.64Q38.37 5.46 38.55 5.42L38.55 5.42L38.55 5.42Q38.82 5.37 38.84 5.74L38.84 5.74L38.84 5.74Q38.86 5.89 38.86 6.04L38.86 6.04L38.86 6.04Q38.87 6.19 38.88 6.32L38.88 6.32L38.88 6.50L38.86 6.76L38.86 6.76Q38.84 6.87 38.83 6.98L38.83 6.98L38.83 6.98Q38.82 7.09 38.81 7.19L38.81 7.19L38.81 7.19Q38.80 7.45 38.80 7.65L38.80 7.65L38.80 7.65Q38.80 7.84 38.81 7.97L38.81 7.97L38.81 7.97Q38.82 8.13 38.82 8.31L38.82 8.31L38.82 8.31Q38.83 8.49 38.81 8.69L38.81 8.69L38.81 8.69Q38.80 8.99 38.90 9.08L38.90 9.08L38.90 9.08Q38.97 9.17 39.22 9.19L39.22 9.19L39.22 9.19Q39.34 9.21 39.46 9.21L39.46 9.21L39.46 9.21Q39.58 9.22 39.70 9.24L39.70 9.24L39.70 9.24Q39.89 9.26 40.08 9.24L40.08 9.24L40.08 9.24Q40.27 9.22 40.46 9.25L40.46 9.25L40.46 9.25Q40.58 9.26 40.76 9.27L40.76 9.27L40.76 9.27Q40.93 9.28 41.04 9.34ZM46.86 5.58L46.86 5.58L46.86 5.58Q46.91 5.56 46.98 5.55L46.98 5.55L46.98 5.55Q47.05 5.55 47.12 5.56L47.12 5.56L47.12 5.56Q47.19 5.58 47.25 5.61L47.25 5.61L47.25 5.61Q47.30 5.65 47.33 5.69L47.33 5.69L47.33 5.69Q47.58 6.21 47.78 6.73L47.78 6.73L47.78 6.73Q47.98 7.25 48.24 7.76L48.24 7.76L48.24 7.76Q48.44 8.15 48.60 8.58L48.60 8.58L48.60 8.58Q48.77 9.00 48.99 9.43L48.99 9.43L49 9.46L49.01 9.47L49.01 9.47Q49.12 9.67 49.20 9.81L49.20 9.81L49.20 9.81Q49.29 9.95 49.34 10.02L49.34 10.02L49.34 10.02Q49.83 10.67 50.34 10.96L50.34 10.96L50.34 10.96Q50.85 11.25 51.47 11.21L51.47 11.21L51.47 11.20L51.48 11.20L51.48 11.20Q51.69 11.20 51.71 11.40L51.71 11.40L51.71 11.40Q51.72 11.61 51.52 11.62L51.52 11.62L51.52 11.62Q50.65 11.68 49.98 11.25L49.98 11.25L49.98 11.25Q49.51 10.94 49.17 10.48L49.17 10.48L49.17 10.48Q48.84 10.01 48.60 9.53L48.60 9.53L48.60 9.53Q48.53 9.37 48.45 9.21L48.45 9.21L48.45 9.21Q48.38 9.05 48.28 8.91L48.28 8.91L48.28 8.91Q48.21 8.78 48.11 8.70L48.11 8.70L48.11 8.70Q48.02 8.61 47.92 8.56L47.92 8.56L47.92 8.56Q47.82 8.51 47.69 8.48L47.69 8.48L47.69 8.48Q47.56 8.46 47.41 8.46L47.41 8.46L47.41 8.46Q47.29 8.46 47.12 8.48L47.12 8.48L47.12 8.48Q46.94 8.50 46.72 8.51L46.72 8.51L46.59 8.52L46.59 8.52Q46.44 8.53 46.26 8.56L46.26 8.56L46.26 8.56Q46.09 8.59 45.96 8.70L45.96 8.70L45.96 8.70Q45.92 8.74 45.87 8.81L45.87 8.81L45.87 8.81Q45.83 8.88 45.79 8.98L45.79 8.98L45.79 8.98Q45.76 9.06 45.73 9.16L45.73 9.16L45.73 9.16Q45.70 9.26 45.66 9.37L45.66 9.37L45.66 9.37Q45.64 9.43 45.58 9.61L45.58 9.61L45.58 9.61Q45.40 9.82 45.29 9.78L45.29 9.78L45.29 9.78Q45.24 9.75 45.22 9.64L45.22 9.64L45.22 9.64Q45.21 9.54 45.22 9.45L45.22 9.45L45.22 9.45Q45.22 9.36 45.25 9.26L45.25 9.26L45.25 9.26Q45.38 8.89 45.54 8.52L45.54 8.52L45.54 8.52Q45.71 8.15 45.88 7.78L45.88 7.78L45.88 7.78Q46.01 7.49 46.14 7.21L46.14 7.21L46.14 7.21Q46.27 6.92 46.39 6.62L46.39 6.62L46.39 6.62Q46.44 6.48 46.49 6.34L46.49 6.34L46.49 6.34Q46.55 6.20 46.61 6.06L46.61 6.06L46.72 5.81L46.72 5.81Q46.81 5.63 46.86 5.58ZM47.07 6.49L47.07 6.49L47.07 6.49Q46.94 6.49 46.87 6.60L46.87 6.60L46.87 6.60Q46.83 6.64 46.78 6.75L46.78 6.75L46.78 6.75Q46.72 6.84 46.67 6.96L46.67 6.96L46.67 6.96Q46.63 7.08 46.58 7.21L46.58 7.21L46.58 7.21Q46.49 7.49 46.46 7.67L46.46 7.67L46.46 7.67Q46.41 8.00 46.57 8.09L46.57 8.09L46.57 8.09Q46.62 8.12 46.66 8.12L46.66 8.12L46.66 8.12Q46.74 8.13 46.84 8.13L46.84 8.13L46.84 8.13Q46.95 8.13 47.09 8.13L47.09 8.13L47.09 8.13Q47.20 8.13 47.36 8.13L47.36 8.13L47.36 8.13Q47.52 8.12 47.63 8.09L47.63 8.09L47.73 8.06L47.76 7.96L47.76 7.96Q47.79 7.84 47.74 7.67L47.74 7.67L47.74 7.67Q47.69 7.51 47.58 7.28L47.58 7.28L47.58 7.28Q47.48 7.05 47.40 6.88L47.40 6.88L47.40 6.88Q47.32 6.71 47.26 6.60L47.26 6.60L47.26 6.60Q47.19 6.48 47.07 6.49ZM51.46 7.99L51.46 7.99L51.46 7.99Q51.47 8.16 51.46 8.33L51.46 8.33L51.46 8.33Q51.45 8.50 51.46 8.67L51.46 8.67L51.46 8.67Q51.47 9.21 51.46 9.49L51.46 9.49L51.46 9.49Q51.46 9.61 51.36 9.67L51.36 9.67L51.36 9.67Q51.25 9.73 51.17 9.68L51.17 9.68L51.17 9.68Q51.08 9.65 51.07 9.52L51.07 9.52L51.07 9.52Q51.06 9.30 51.05 9.08L51.05 9.08L51.05 9.08Q51.04 8.87 51.04 8.64L51.04 8.64L51.04 8.64Q51.05 8.37 51.05 8.09L51.05 8.09L51.05 8.09Q51.06 7.82 51.06 7.53L51.06 7.53L51.06 7.53Q51.06 7.37 51.06 7.20L51.06 7.20L51.06 7.20Q51.06 7.03 51.06 6.87L51.06 6.87L51.06 6.87Q51.06 6.68 51.05 6.47L51.05 6.47L51.05 6.47Q51.05 6.26 51.06 6.03L51.06 6.03L51.06 6.03Q51.07 5.99 51.07 5.93L51.07 5.93L51.07 5.93Q51.07 5.87 51.07 5.78L51.07 5.78L51.07 5.78Q51.07 5.63 51.08 5.61L51.08 5.61L51.08 5.61Q51.08 5.55 51.19 5.48L51.19 5.48L51.19 5.48Q51.28 5.42 51.56 5.41L51.56 5.41L51.56 5.41Q51.69 5.40 51.79 5.40L51.79 5.40L51.79 5.40Q51.89 5.39 51.96 5.39L51.96 5.39L51.96 5.39Q52.14 5.39 52.34 5.40L52.34 5.40L52.34 5.40Q52.53 5.41 52.73 5.42L52.73 5.42L52.73 5.42Q52.84 5.43 52.98 5.44L52.98 5.44L52.98 5.44Q53.11 5.45 53.27 5.48L53.27 5.48L53.27 5.48Q53.58 5.52 53.76 5.66L53.76 5.66L53.76 5.66L53.76 5.66Q54.00 5.86 54.12 6.09L54.12 6.09L54.12 6.09Q54.24 6.32 54.22 6.61L54.22 6.61L54.22 6.61Q54.22 6.81 54.13 6.96L54.13 6.96L54.13 6.96Q54.04 7.10 53.88 7.21L53.88 7.21L53.88 7.21Q53.59 7.42 53.24 7.49L53.24 7.49L53.24 7.49Q53.27 7.48 53.14 7.51L53.14 7.51L53.14 7.51Q52.94 7.54 52.73 7.53L52.73 7.53L52.73 7.53Q52.52 7.52 52.32 7.55L52.32 7.55L52.32 7.55Q52.25 7.55 52.15 7.56L52.15 7.56L52.15 7.56Q52.06 7.56 51.93 7.55L51.93 7.55L51.93 7.55Q51.69 7.54 51.58 7.62L51.58 7.62L51.58 7.62Q51.45 7.72 51.46 7.99ZM52.53 7.12L52.60 7.12L52.60 7.12Q52.86 7.12 53.12 7.10L53.12 7.10L53.12 7.10Q53.37 7.07 53.61 6.89L53.61 6.89L53.61 6.89Q53.86 6.70 53.81 6.44L53.81 6.44L53.81 6.44Q53.76 6.18 53.53 6.02L53.53 6.02L53.53 6.02Q53.47 5.97 53.40 5.94L53.40 5.94L53.40 5.94Q53.33 5.91 53.25 5.89L53.25 5.89L53.25 5.89Q52.90 5.81 52.60 5.85L52.60 5.85L52.60 5.85Q52.45 5.87 52.29 5.88L52.29 5.88L52.29 5.88Q52.14 5.89 51.97 5.89L51.97 5.89L51.97 5.89Q51.89 5.89 51.83 5.88L51.83 5.88L51.83 5.88Q51.77 5.88 51.73 5.87L51.73 5.87L51.73 5.87Q51.69 5.86 51.66 5.87L51.66 5.87L51.66 5.87Q51.49 5.91 51.47 6.17L51.47 6.17L51.47 6.17Q51.47 6.23 51.46 6.32L51.46 6.32L51.46 6.32Q51.46 6.41 51.46 6.52L51.46 6.52L51.46 6.52Q51.47 6.56 51.47 6.61L51.47 6.61L51.47 6.61Q51.47 6.66 51.47 6.73L51.47 6.73L51.47 6.73Q51.48 6.97 51.62 7.08L51.62 7.08L51.62 7.08Q51.75 7.19 52.07 7.18L52.07 7.18L52.07 7.18Q52.19 7.17 52.30 7.16L52.30 7.16L52.30 7.16Q52.41 7.14 52.53 7.12L52.53 7.12ZM56.20 7.99L56.20 7.99L56.20 7.99Q56.21 8.16 56.20 8.33L56.20 8.33L56.20 8.33Q56.19 8.50 56.20 8.67L56.20 8.67L56.20 8.67Q56.21 9.21 56.20 9.49L56.20 9.49L56.20 9.49Q56.20 9.61 56.10 9.67L56.10 9.67L56.10 9.67Q55.99 9.73 55.90 9.68L55.90 9.68L55.90 9.68Q55.82 9.65 55.81 9.52L55.81 9.52L55.81 9.52Q55.79 9.30 55.79 9.08L55.79 9.08L55.79 9.08Q55.78 8.87 55.78 8.64L55.78 8.64L55.78 8.64Q55.79 8.37 55.79 8.09L55.79 8.09L55.79 8.09Q55.79 7.82 55.79 7.53L55.79 7.53L55.79 7.53Q55.79 7.37 55.80 7.20L55.80 7.20L55.80 7.20Q55.80 7.03 55.79 6.87L55.79 6.87L55.79 6.87Q55.79 6.68 55.79 6.47L55.79 6.47L55.79 6.47Q55.79 6.26 55.80 6.03L55.80 6.03L55.80 6.03Q55.81 5.99 55.81 5.93L55.81 5.93L55.81 5.93Q55.81 5.87 55.81 5.78L55.81 5.78L55.81 5.78Q55.81 5.63 55.82 5.61L55.82 5.61L55.82 5.61Q55.82 5.55 55.93 5.48L55.93 5.48L55.93 5.48Q56.02 5.42 56.29 5.41L56.29 5.41L56.29 5.41Q56.43 5.40 56.53 5.40L56.53 5.40L56.53 5.40Q56.63 5.39 56.70 5.39L56.70 5.39L56.70 5.39Q56.88 5.39 57.08 5.40L57.08 5.40L57.08 5.40Q57.27 5.41 57.47 5.42L57.47 5.42L57.47 5.42Q57.58 5.43 57.71 5.44L57.71 5.44L57.71 5.44Q57.85 5.45 58.00 5.48L58.00 5.48L58.00 5.48Q58.32 5.52 58.50 5.66L58.50 5.66L58.50 5.66L58.50 5.66Q58.73 5.86 58.85 6.09L58.85 6.09L58.85 6.09Q58.97 6.32 58.96 6.61L58.96 6.61L58.96 6.61Q58.95 6.81 58.86 6.96L58.86 6.96L58.86 6.96Q58.78 7.10 58.62 7.21L58.62 7.21L58.62 7.21Q58.32 7.42 57.98 7.49L57.98 7.49L57.98 7.49Q58.00 7.48 57.88 7.51L57.88 7.51L57.88 7.51Q57.67 7.54 57.47 7.53L57.47 7.53L57.47 7.53Q57.26 7.52 57.05 7.55L57.05 7.55L57.05 7.55Q56.98 7.55 56.89 7.56L56.89 7.56L56.89 7.56Q56.80 7.56 56.67 7.55L56.67 7.55L56.67 7.55Q56.43 7.54 56.32 7.62L56.32 7.62L56.32 7.62Q56.18 7.72 56.20 7.99ZM57.27 7.12L57.33 7.12L57.33 7.12Q57.60 7.12 57.85 7.10L57.85 7.10L57.85 7.10Q58.11 7.07 58.34 6.89L58.34 6.89L58.34 6.89Q58.60 6.70 58.55 6.44L58.55 6.44L58.55 6.44Q58.50 6.18 58.26 6.02L58.26 6.02L58.26 6.02Q58.21 5.97 58.14 5.94L58.14 5.94L58.14 5.94Q58.06 5.91 57.99 5.89L57.99 5.89L57.99 5.89Q57.64 5.81 57.34 5.85L57.34 5.85L57.34 5.85Q57.19 5.87 57.03 5.88L57.03 5.88L57.03 5.88Q56.88 5.89 56.71 5.89L56.71 5.89L56.71 5.89Q56.63 5.89 56.57 5.88L56.57 5.88L56.57 5.88Q56.51 5.88 56.47 5.87L56.47 5.87L56.47 5.87Q56.43 5.86 56.40 5.87L56.40 5.87L56.40 5.87Q56.23 5.91 56.21 6.17L56.21 6.17L56.21 6.17Q56.21 6.23 56.20 6.32L56.20 6.32L56.20 6.32Q56.20 6.41 56.20 6.52L56.20 6.52L56.20 6.52Q56.21 6.56 56.21 6.61L56.21 6.61L56.21 6.61Q56.21 6.66 56.21 6.73L56.21 6.73L56.21 6.73Q56.22 6.97 56.36 7.08L56.36 7.08L56.36 7.08Q56.49 7.19 56.81 7.18L56.81 7.18L56.81 7.18Q56.92 7.17 57.04 7.16L57.04 7.16L57.04 7.16Q57.15 7.14 57.27 7.12L57.27 7.12ZM63.51 9.08L63.51 9.08L63.51 9.08Q63.40 9.23 63.29 9.34L63.29 9.34L63.29 9.34Q63.18 9.45 63.07 9.53L63.07 9.53L63.07 9.53Q62.95 9.60 62.81 9.66L62.81 9.66L62.81 9.66Q62.67 9.71 62.49 9.73L62.49 9.73L62.49 9.73Q62.41 9.74 62.31 9.74L62.31 9.74L62.31 9.74Q62.21 9.75 62.10 9.73L62.10 9.73L62.10 9.73Q61.95 9.72 61.81 9.72L61.81 9.72L61.81 9.72Q61.67 9.72 61.52 9.69L61.52 9.69L61.52 9.69Q61.19 9.61 60.97 9.46L60.97 9.46L60.97 9.46Q60.75 9.31 60.63 9.07L60.63 9.07L60.63 9.07Q60.48 8.74 60.81 8.73L60.81 8.73L60.81 8.73Q60.86 8.73 60.93 8.81L60.93 8.81L60.93 8.81Q61.00 8.89 61.04 8.93L61.04 8.93L61.04 8.93Q61.19 9.07 61.21 9.08L61.21 9.08L61.22 9.08L61.22 9.09L61.22 9.09Q61.55 9.32 62.10 9.32L62.10 9.32L62.11 9.32L62.12 9.32L62.12 9.32Q62.35 9.32 62.71 9.23L62.71 9.23L62.71 9.23Q63.07 9.14 63.18 8.87L63.18 8.87L63.18 8.87Q63.25 8.70 63.18 8.51L63.18 8.51L63.18 8.50L63.18 8.50Q63.01 8.14 62.52 8.02L62.52 8.02L61.68 7.80L61.68 7.80Q61.50 7.76 61.25 7.63L61.25 7.63L61.25 7.63Q61.12 7.56 61.02 7.51L61.02 7.51L61.02 7.51Q60.93 7.45 60.87 7.40L60.87 7.40L60.87 7.40Q60.59 7.19 60.54 6.99L60.54 6.99L60.54 6.99Q60.53 6.95 60.53 6.89L60.53 6.89L60.53 6.89Q60.53 6.83 60.53 6.74L60.53 6.74L60.53 6.74Q60.53 6.64 60.55 6.55L60.55 6.55L60.55 6.55Q60.56 6.46 60.57 6.36L60.57 6.36L60.57 6.36Q60.61 6.04 60.84 5.80L60.84 5.80L60.84 5.80Q60.94 5.69 61.09 5.62L61.09 5.62L61.09 5.62Q61.24 5.55 61.37 5.49L61.37 5.49L61.37 5.49Q61.56 5.40 61.77 5.40L61.77 5.40L61.77 5.40Q61.98 5.39 62.19 5.40L62.19 5.40L62.19 5.40Q62.86 5.42 63.23 5.87L63.23 5.87L63.23 5.87Q63.40 6.08 63.36 6.22L63.36 6.22L63.31 6.26L63.31 6.26Q63.21 6.32 63.05 6.19L63.05 6.19L63.05 6.19Q63.01 6.16 62.98 6.13L62.98 6.13L62.98 6.13Q62.95 6.09 62.91 6.06L62.91 6.06L62.91 6.06Q62.88 6.02 62.82 5.98L62.82 5.98L62.82 5.98Q62.77 5.95 62.70 5.91L62.70 5.91L62.69 5.90L62.67 5.90L62.67 5.90Q62.41 5.82 62.15 5.81L62.15 5.81L62.15 5.81Q61.89 5.80 61.61 5.86L61.61 5.86L61.61 5.86Q61.27 5.93 61.09 6.14L61.09 6.14L61.09 6.14Q60.92 6.34 60.92 6.67L60.92 6.67L60.92 6.69L60.92 6.70L60.92 6.70Q60.95 7.12 61.58 7.30L61.58 7.30L61.78 7.36L62.28 7.53L62.28 7.53Q62.40 7.57 62.51 7.62L62.51 7.62L62.51 7.62Q62.63 7.67 62.76 7.72L62.76 7.72L62.76 7.72Q62.95 7.81 63.12 7.90L63.12 7.90L63.12 7.90Q63.28 7.98 63.42 8.07L63.42 8.07L63.42 8.07Q63.51 8.13 63.56 8.22L63.56 8.22L63.56 8.22Q63.62 8.31 63.63 8.41L63.63 8.41L63.63 8.41Q63.65 8.51 63.65 8.62L63.65 8.62L63.65 8.62Q63.64 8.73 63.62 8.82L63.62 8.82L63.62 8.82Q63.61 8.89 63.58 8.96L63.58 8.96L63.58 8.96Q63.55 9.03 63.51 9.08Z"></path></g><!----><!----></svg>